<svg width="82" height="42" viewBox="0 0 82 42" fill="none" xmlns="http://www.w3.org/2000/svg">
<path d="M13.0403 15.7239V25.4022C13.0403 27.6015 12.4626 29.2473 11.3073 30.3396C10.1519 31.4465 8.48925 32 6.31939 32C5.19218 32 4.13543 31.8689 3.14913 31.6068C2.16282 31.3446 1.32446 30.9586 0.634052 30.4489L2.09237 27.5432C2.55734 27.9364 3.14208 28.2423 3.84658 28.4608C4.56518 28.6938 5.26968 28.8103 5.96009 28.8103C7.01684 28.8103 7.7918 28.57 8.28495 28.0894C8.7781 27.6087 9.02468 26.8951 9.02468 25.9484V25.5551C8.24972 26.4873 7.11547 26.9533 5.62193 26.9533C4.60745 26.9533 3.67046 26.7203 2.81097 26.2542C1.95147 25.7736 1.2681 25.1036 0.760863 24.2443C0.253621 23.3704 0 22.3654 0 21.2294C0 20.1079 0.253621 19.1175 0.760863 18.2582C1.2681 17.3843 1.95147 16.7143 2.81097 16.2483C3.67046 15.7676 4.60745 15.5273 5.62193 15.5273C7.25638 15.5273 8.45403 16.0735 9.21489 17.1658V15.7239H13.0403ZM6.57301 23.6544C7.2916 23.6544 7.88338 23.4287 8.34835 22.9772C8.82742 22.5257 9.06695 21.9431 9.06695 21.2294C9.06695 20.5157 8.83446 19.9404 8.36949 19.5035C7.90452 19.052 7.30569 18.8262 6.57301 18.8262C5.84033 18.8262 5.23445 19.052 4.75539 19.5035C4.29042 19.9404 4.05793 20.5157 4.05793 21.2294C4.05793 21.9431 4.29747 22.5257 4.77653 22.9772C5.25559 23.4287 5.85442 23.6544 6.57301 23.6544Z" fill="white"/>
<path d="M20.5027 15.5273C22.4048 15.5273 23.8561 15.9788 24.8565 16.8818C25.8569 17.7703 26.3571 19.1394 26.3571 20.9891V27.565H22.6162V26.0357C22.0385 27.1864 20.9113 27.7617 19.2346 27.7617C18.3469 27.7617 17.579 27.6015 16.9308 27.281C16.2827 26.9606 15.7896 26.5309 15.4514 25.9921C15.1273 25.4386 14.9653 24.8123 14.9653 24.1132C14.9653 22.9917 15.3809 22.1251 16.2123 21.5134C17.0436 20.8871 18.3258 20.574 20.0588 20.574H22.3414C22.271 19.3214 21.4608 18.6951 19.9109 18.6951C19.3614 18.6951 18.8048 18.7898 18.2412 18.9791C17.6776 19.1539 17.1986 19.4015 16.804 19.7219L15.4514 16.9037C16.0854 16.4667 16.8533 16.1317 17.7551 15.8987C18.671 15.6511 19.5868 15.5273 20.5027 15.5273ZM20.3547 25.14C20.8197 25.14 21.2283 25.0235 21.5806 24.7905C21.9328 24.5574 22.1864 24.2152 22.3414 23.7637V22.7368H20.6083C19.4389 22.7368 18.8541 23.1374 18.8541 23.9384C18.8541 24.3025 18.988 24.5938 19.2557 24.8123C19.5234 25.0308 19.8898 25.14 20.3547 25.14Z" fill="white"/>
<path d="M36.3525 15.5273C37.7756 15.5273 38.9169 15.9643 39.7764 16.8381C40.65 17.712 41.0867 19.0301 41.0867 20.7925V27.565H37.0711V21.4697C37.0711 19.853 36.4441 19.0447 35.1901 19.0447C34.4996 19.0447 33.9431 19.2777 33.5204 19.7438C33.1118 20.2099 32.9075 20.909 32.9075 21.8411V27.565H28.8918V15.7239H32.7173V17.0129C33.1681 16.5323 33.7036 16.1682 34.3235 15.9206C34.9435 15.6584 35.6198 15.5273 36.3525 15.5273Z" fill="white"/>
<path d="M43.1218 32C41.9523 32 41.0224 31.7961 40.332 31.3883L41.3465 28.4389C41.7128 28.672 42.1285 28.7885 42.5934 28.7885C42.9598 28.7885 43.2486 28.6574 43.46 28.3952C43.6713 28.1331 43.777 27.7471 43.777 27.2373V15.7239H47.7927V27.2592C47.7927 28.7157 47.377 29.8663 46.5457 30.711C45.7285 31.5703 44.5872 32 43.1218 32ZM45.7848 14.4131C45.0522 14.4131 44.4604 14.2019 44.0095 13.7795C43.5586 13.3572 43.3332 12.8328 43.3332 12.2066C43.3332 11.5803 43.5586 11.0559 44.0095 10.6336C44.4604 10.2112 45.0522 10 45.7848 10C46.5175 10 47.1093 10.2039 47.5602 10.6117C48.0111 11.005 48.2365 11.5147 48.2365 12.141C48.2365 12.7964 48.0111 13.3426 47.5602 13.7795C47.1093 14.2019 46.5175 14.4131 45.7848 14.4131Z" fill="white"/>
<path d="M55.26 15.5273C57.1621 15.5273 58.6134 15.9788 59.6138 16.8818C60.6142 17.7703 61.1144 19.1394 61.1144 20.9891V27.565H57.3735V26.0357C56.7958 27.1864 55.6686 27.7617 53.9919 27.7617C53.1042 27.7617 52.3363 27.6015 51.6881 27.281C51.04 26.9606 50.5468 26.5309 50.2087 25.9921C49.8846 25.4386 49.7226 24.8123 49.7226 24.1132C49.7226 22.9917 50.1382 22.1251 50.9695 21.5134C51.8009 20.8871 53.083 20.574 54.8161 20.574H57.0987C57.0283 19.3214 56.2181 18.6951 54.6682 18.6951C54.1187 18.6951 53.5621 18.7898 52.9985 18.9791C52.4349 19.1539 51.9558 19.4015 51.5613 19.7219L50.2087 16.9037C50.8427 16.4667 51.6106 16.1317 52.5124 15.8987C53.4283 15.6511 54.3441 15.5273 55.26 15.5273ZM55.112 25.14C55.577 25.14 55.9856 25.0235 56.3378 24.7905C56.6901 24.5574 56.9437 24.2152 57.0987 23.7637V22.7368H55.3656C54.1962 22.7368 53.6114 23.1374 53.6114 23.9384C53.6114 24.3025 53.7453 24.5938 54.013 24.8123C54.2807 25.0308 54.647 25.14 55.112 25.14Z" fill="white"/>
<path d="M63.6491 11.3545H67.6648V27.565H63.6491V11.3545Z" fill="white"/>
<path d="M70.2744 15.7239H74.2901V27.565H70.2744V15.7239ZM72.2823 14.4131C71.5496 14.4131 70.9578 14.2019 70.5069 13.7795C70.0561 13.3572 69.8306 12.8328 69.8306 12.2066C69.8306 11.5803 70.0561 11.0559 70.5069 10.6336C70.9578 10.2112 71.5496 10 72.2823 10C73.015 10 73.6067 10.2039 74.0576 10.6117C74.5085 11.005 74.7339 11.5147 74.7339 12.141C74.7339 12.7964 74.5085 13.3426 74.0576 13.7795C73.6067 14.2019 73.015 14.4131 72.2823 14.4131Z" fill="white"/>
<path d="M78.5906 27.7617C77.9143 27.7617 77.3436 27.5286 76.8787 27.0626C76.4137 26.5965 76.1812 26.0066 76.1812 25.2929C76.1812 24.5647 76.4066 23.9748 76.8575 23.5233C77.3225 23.0718 77.9002 22.8461 78.5906 22.8461C79.2951 22.8461 79.8728 23.0718 80.3237 23.5233C80.7746 23.9748 81 24.5647 81 25.2929C81 26.0066 80.7675 26.5965 80.3025 27.0626C79.8517 27.5286 79.281 27.7617 78.5906 27.7617Z" fill="white"/>
</svg>
