<svg width="82" height="42" viewBox="0 0 82 42" fill="none" xmlns="http://www.w3.org/2000/svg">
<path d="M9.22405 16.543V15.3555H12.6595V26.4156C12.6595 28.2474 12.0556 29.6289 10.8477 30.5603C9.65545 31.5072 8.1887 31.9807 6.44743 31.9807C3.78061 31.9807 1.92168 31.0415 0.870638 29.1632L3.88257 27.4402C4.43162 28.4181 5.32579 28.9071 6.56508 28.9071C7.41219 28.9071 8.0632 28.6898 8.51813 28.2551C8.98875 27.8205 9.22405 27.2073 9.22405 26.4156V25.3446C8.39263 26.3536 7.24747 26.8581 5.78856 26.8581C4.14141 26.8581 2.76094 26.2837 1.64715 25.135C0.549051 23.9863 0 22.5892 0 20.9438C0 19.2983 0.549051 17.909 1.64715 16.7758C2.74525 15.6116 4.12572 15.0295 5.78856 15.0295C7.24747 15.0295 8.39263 15.534 9.22405 16.543ZM4.32966 22.8997C4.87871 23.3964 5.5611 23.6448 6.37683 23.6448C7.19257 23.6448 7.87496 23.3964 8.42401 22.8997C8.95737 22.4185 9.22405 21.7665 9.22405 20.9438C9.22405 20.121 8.95737 19.4691 8.42401 18.9879C7.87496 18.4911 7.19257 18.2427 6.37683 18.2427C5.5611 18.2427 4.87871 18.4911 4.32966 18.9879C3.79629 19.4691 3.52961 20.121 3.52961 20.9438C3.52961 21.7665 3.79629 22.4185 4.32966 22.8997Z" fill="white"/>
<path d="M23.7907 16.4498V15.3555H27.3203V26.9978H23.7907V25.9034C22.975 26.8503 21.8063 27.3237 20.2846 27.3237C18.7316 27.3237 17.406 26.7339 16.3079 25.5541C15.2098 24.3744 14.6608 22.9152 14.6608 21.1766C14.6608 19.4535 15.2098 18.0021 16.3079 16.8224C17.4217 15.6271 18.7473 15.0295 20.2846 15.0295C21.8063 15.0295 22.975 15.5029 23.7907 16.4498ZM18.1904 21.1766C18.1904 22.0459 18.4492 22.7367 18.9669 23.2489C19.4846 23.7612 20.1591 24.0173 20.9905 24.0173C21.8219 24.0173 22.4965 23.7612 23.0142 23.2489C23.5318 22.7367 23.7907 22.0459 23.7907 21.1766C23.7907 20.3073 23.5318 19.6165 23.0142 19.1043C22.4965 18.592 21.8219 18.3359 20.9905 18.3359C20.1591 18.3359 19.4846 18.592 18.9669 19.1043C18.4492 19.6165 18.1904 20.3073 18.1904 21.1766Z" fill="white"/>
<path d="M36.8043 15.0295C38.075 15.0295 39.1182 15.4564 39.9339 16.3101C40.781 17.1794 41.2045 18.3592 41.2045 19.8494V26.9978H37.6749V20.3616C37.6749 19.6942 37.4867 19.1741 37.1102 18.8016C36.7337 18.429 36.2396 18.2427 35.6278 18.2427C34.9375 18.2427 34.3963 18.4523 34.0041 18.8714C33.6276 19.275 33.4394 19.8649 33.4394 20.6411V26.9978H29.9098V15.3555H33.4394V16.4498C34.1453 15.5029 35.267 15.0295 36.8043 15.0295Z" fill="white"/>
<path d="M46.9988 13.7255C46.5909 14.1291 46.0968 14.3309 45.5164 14.3309C44.9359 14.3309 44.434 14.1291 44.0104 13.7255C43.6025 13.3064 43.3986 12.8097 43.3986 12.2353C43.3986 11.661 43.6025 11.172 44.0104 10.7684C44.434 10.3493 44.9359 10.1397 45.5164 10.1397C46.0968 10.1397 46.5909 10.3493 46.9988 10.7684C47.4224 11.172 47.6341 11.661 47.6341 12.2353C47.6341 12.8097 47.4224 13.3064 46.9988 13.7255ZM43.7516 26.9978V15.3555H47.2812V26.9978C47.2812 28.814 46.8419 30.1257 45.9635 30.9329C45.085 31.7401 43.7202 32.0893 41.8691 31.9807V28.6277C42.528 28.6587 43.0064 28.5423 43.3045 28.2784C43.6025 28.03 43.7516 27.6032 43.7516 26.9978Z" fill="white"/>
<path d="M58.4204 16.4498V15.3555H61.95V26.9978H58.4204V25.9034C57.6047 26.8503 56.436 27.3237 54.9143 27.3237C53.3613 27.3237 52.0357 26.7339 50.9376 25.5541C49.8395 24.3744 49.2905 22.9152 49.2905 21.1766C49.2905 19.4535 49.8395 18.0021 50.9376 16.8224C52.0514 15.6271 53.377 15.0295 54.9143 15.0295C56.436 15.0295 57.6047 15.5029 58.4204 16.4498ZM52.8201 21.1766C52.8201 22.0459 53.0789 22.7367 53.5966 23.2489C54.1143 23.7612 54.7888 24.0173 55.6203 24.0173C56.4517 24.0173 57.1262 23.7612 57.6439 23.2489C58.1616 22.7367 58.4204 22.0459 58.4204 21.1766C58.4204 20.3073 58.1616 19.6165 57.6439 19.1043C57.1262 18.592 56.4517 18.3359 55.6203 18.3359C54.7888 18.3359 54.1143 18.592 53.5966 19.1043C53.0789 19.6165 52.8201 20.3073 52.8201 21.1766Z" fill="white"/>
<path d="M68.0691 26.9978H64.5395V10H68.0691V26.9978Z" fill="white"/>
<path d="M73.8992 13.7255C73.4914 14.1291 72.9972 14.3309 72.4168 14.3309C71.8364 14.3309 71.3344 14.1291 70.9108 13.7255C70.503 13.3064 70.299 12.8097 70.299 12.2353C70.299 11.661 70.503 11.172 70.9108 10.7684C71.3344 10.3493 71.8364 10.1397 72.4168 10.1397C72.9972 10.1397 73.4914 10.3493 73.8992 10.7684C74.3228 11.172 74.5346 11.661 74.5346 12.2353C74.5346 12.8097 74.3228 13.3064 73.8992 13.7255ZM74.1816 26.9978H70.652V15.3555H74.1816V26.9978Z" fill="white"/>
<path d="M81 25.1117C81 25.7171 80.7804 26.2371 80.3411 26.6718C79.9019 27.1064 79.3764 27.3237 78.7646 27.3237C78.1528 27.3237 77.6273 27.1064 77.188 26.6718C76.7488 26.2371 76.5292 25.7171 76.5292 25.1117C76.5292 24.5063 76.7488 23.9863 77.188 23.5516C77.6273 23.117 78.1528 22.8997 78.7646 22.8997C79.3764 22.8997 79.9019 23.117 80.3411 23.5516C80.7804 23.9863 81 24.5063 81 25.1117Z" fill="white"/>
</svg>
