<svg xmlns="http://www.w3.org/2000/svg" width="81.4" height="41.67" viewBox="0 0 81.4 41.67">
  <path id="Path_89" data-name="Path 89" d="M-29.007,0V-16.192h3.982V0Zm6.358,0V-11.176h3.982V0Zm-.11-16.654H-18.6v3.586h-4.158Zm20.7,5.17A3.429,3.429,0,0,1,.814-10.3a5.826,5.826,0,0,1,.935,3.63V0H-2.233V-6.556a2.631,2.631,0,0,0-.3-1.43,1.119,1.119,0,0,0-1-.44,1.529,1.529,0,0,0-1.3.616,2.849,2.849,0,0,0-.462,1.738V0H-9.273V-6.556a2.554,2.554,0,0,0-.308-1.43,1.123,1.123,0,0,0-.99-.44,1.5,1.5,0,0,0-1.287.616,2.9,2.9,0,0,0-.451,1.738V0h-3.982V-7.964a26.141,26.141,0,0,0-.176-3.212h3.74l.2,1.562A3.445,3.445,0,0,1-11.11-11a4.418,4.418,0,0,1,2.1-.484A3.217,3.217,0,0,1-5.753-9.46,4.4,4.4,0,0,1-4.18-10.934,4.263,4.263,0,0,1-2.057-11.484ZM9.691.176a7.1,7.1,0,0,1-3.256-.7A4.992,4.992,0,0,1,4.3-2.552a6.187,6.187,0,0,1-.748-3.1,6.187,6.187,0,0,1,.748-3.1A4.992,4.992,0,0,1,6.435-10.78a7.1,7.1,0,0,1,3.256-.7,6.894,6.894,0,0,1,3.223.715,5.1,5.1,0,0,1,2.123,2.024,6.126,6.126,0,0,1,.748,3.091,6.126,6.126,0,0,1-.748,3.091A5.1,5.1,0,0,1,12.914-.539,6.894,6.894,0,0,1,9.691.176Zm0-2.97q2.156,0,2.156-2.86A3.483,3.483,0,0,0,11.308-7.8a1.922,1.922,0,0,0-1.617-.693,1.979,1.979,0,0,0-1.65.693,3.43,3.43,0,0,0-.55,2.145,3.474,3.474,0,0,0,.55,2.167A1.979,1.979,0,0,0,9.691-2.794Zm15.444-8.69a3.6,3.6,0,0,1,2.959,1.2,5.639,5.639,0,0,1,.979,3.619V0H25.091V-6.49a2.442,2.442,0,0,0-.352-1.485,1.309,1.309,0,0,0-1.1-.451,1.868,1.868,0,0,0-1.452.6,2.28,2.28,0,0,0-.55,1.6V0H17.655V-7.964a26.141,26.141,0,0,0-.176-3.212h3.74l.2,1.65A4.4,4.4,0,0,1,23-10.978,4.453,4.453,0,0,1,25.135-11.484Zm-53.7,20.308V20h-3.916V18.482a3.291,3.291,0,0,1-1.408,1.243,4.552,4.552,0,0,1-2.024.451,4.7,4.7,0,0,1-2.552-.7,4.708,4.708,0,0,1-1.749-2.013,6.925,6.925,0,0,1-.627-3.025,7.093,7.093,0,0,1,.638-3.08,5.049,5.049,0,0,1,1.76-2.09,4.458,4.458,0,0,1,2.53-.748,4.31,4.31,0,0,1,2.013.473,3.612,3.612,0,0,1,1.419,1.265V8.824Zm-6.116,8.382a1.952,1.952,0,0,0,1.628-.726,3.315,3.315,0,0,0,.572-2.09,3.4,3.4,0,0,0-.572-2.123,1.94,1.94,0,0,0-1.628-.737,1.955,1.955,0,0,0-1.628.759,3.409,3.409,0,0,0-.594,2.145,3.226,3.226,0,0,0,.572,2.057A1.989,1.989,0,0,0-34.683,17.206Zm20.394-8.382V19.3a5.265,5.265,0,0,1-1.65,4.191,7.159,7.159,0,0,1-4.84,1.441,10.761,10.761,0,0,1-4.73-.968l.594-2.9a11.89,11.89,0,0,0,2.035.693A8.384,8.384,0,0,0-20.911,22a2.946,2.946,0,0,0,2.013-.583,2.322,2.322,0,0,0,.649-1.815v-1.65a4.529,4.529,0,0,1-1.485,1.232,4.121,4.121,0,0,1-1.991.506A4.813,4.813,0,0,1-24.288,19a4.734,4.734,0,0,1-1.771-1.958A6.44,6.44,0,0,1-26.7,14.1a6.388,6.388,0,0,1,.638-2.915A4.81,4.81,0,0,1-24.288,9.22a4.756,4.756,0,0,1,2.563-.7,4.51,4.51,0,0,1,2.046.462,3.517,3.517,0,0,1,1.43,1.254V8.824Zm-6.2,7.9a2.057,2.057,0,0,0,1.65-.693,2.865,2.865,0,0,0,.594-1.925,2.794,2.794,0,0,0-.594-1.881,2.057,2.057,0,0,0-1.65-.693,2.106,2.106,0,0,0-1.661.682,2.753,2.753,0,0,0-.605,1.892,2.806,2.806,0,0,0,.616,1.914A2.082,2.082,0,0,0-20.493,16.722Zm18.854-1.914H-8.657a2.729,2.729,0,0,0,.748,1.87,2.717,2.717,0,0,0,1.87.572,5.324,5.324,0,0,0,1.672-.275,5.661,5.661,0,0,0,1.518-.759l1.012,2.64a6.488,6.488,0,0,1-2.024.968,8.327,8.327,0,0,1-2.376.352,7.346,7.346,0,0,1-3.322-.7,4.984,4.984,0,0,1-2.156-2.013,6.126,6.126,0,0,1-.748-3.091,6.291,6.291,0,0,1,.715-3.025,5.249,5.249,0,0,1,1.98-2.079,5.575,5.575,0,0,1,2.893-.748,5.335,5.335,0,0,1,2.772.7,4.639,4.639,0,0,1,1.826,2.013,6.877,6.877,0,0,1,.638,3.047Zm-5.126-3.564q-1.474,0-1.848,1.716h3.564Q-5.269,11.244-6.765,11.244ZM7.689,8.516a3.6,3.6,0,0,1,2.959,1.2,5.639,5.639,0,0,1,.979,3.619V20H7.645V13.51a2.442,2.442,0,0,0-.352-1.485,1.309,1.309,0,0,0-1.1-.451,1.868,1.868,0,0,0-1.452.6,2.28,2.28,0,0,0-.55,1.6V20H.209V12.036A26.141,26.141,0,0,0,.033,8.824h3.74l.2,1.65A4.4,4.4,0,0,1,5.555,9.022,4.453,4.453,0,0,1,7.689,8.516Zm11.792,11.66a6.156,6.156,0,0,1-4.444-1.54,5.547,5.547,0,0,1-1.606-4.2,6.054,6.054,0,0,1,.781-3.1A5.344,5.344,0,0,1,16.4,9.253a6.921,6.921,0,0,1,3.256-.737,8.237,8.237,0,0,1,2.42.363,5.1,5.1,0,0,1,1.892.979l-1.012,2.75a4.7,4.7,0,0,0-1.386-.77,4.465,4.465,0,0,0-1.518-.286,2.468,2.468,0,0,0-1.892.7,2.953,2.953,0,0,0-.66,2.09,3.031,3.031,0,0,0,.66,2.123,2.476,2.476,0,0,0,1.914.715,4.374,4.374,0,0,0,1.507-.286,4.732,4.732,0,0,0,1.375-.77l1.012,2.706a5.015,5.015,0,0,1-1.925.99A9.058,9.058,0,0,1,19.481,20.176ZM36.817,8.824,31.691,20.4a7.65,7.65,0,0,1-2.541,3.311,8.3,8.3,0,0,1-3.773,1.309l-.924-3.036a7.082,7.082,0,0,0,2.31-.792,3.061,3.061,0,0,0,1.166-1.342l.286-.616L23.661,8.824H27.8L30.3,15.27l2.6-6.446ZM36.4,15.908h4.158V20H36.4Z" transform="translate(40.843 16.654)" fill="#fff"/>
</svg>
